<?xml version="1.0" encoding="UTF-8"?>
<svg width="103px" height="187px" viewBox="0 0 103 187" version="1.1" xmlns="http://www.w3.org/2000/svg" xmlns:xlink="http://www.w3.org/1999/xlink">
    <!-- Generator: Sketch 52.2 (67145) - http://www.bohemiancoding.com/sketch -->
    <title>WebHooks@3x</title>
    <desc>Created with Sketch.</desc>
    <defs>
        <filter x="0.9%" y="0.1%" width="98.1%" height="99.8%" filterUnits="objectBoundingBox" id="filter-1">
            <feGaussianBlur stdDeviation="0" in="SourceGraphic"></feGaussianBlur>
        </filter>
    </defs>
    <g id="HomePage" stroke="none" stroke-width="1" fill="none" fill-rule="evenodd">
        <g id="DistroLandingV10" transform="translate(-797.000000, -2424.000000)">
            <g id="WebHooks" transform="translate(797.000000, 2424.000000)">
                <g id="Group-10">
                    <path d="M92.4595929,186.597634 L10.1178854,138.839433 C9.18334205,138.297398 8.86515139,137.100395 9.40718662,136.165851 C9.65056402,135.746235 10.0411701,135.432014 10.5031832,135.284183 L13.8566401,134.211169 C14.3948387,134.038961 14.9807698,134.10246 15.4695802,134.385971 L97.8112877,182.144171 C98.745831,182.686206 99.0640216,183.88321 98.5219864,184.817753 C98.278609,185.237369 97.8880029,185.55159 97.4259898,185.699422 L94.072533,186.772435 C93.5343344,186.944644 92.9484033,186.881144 92.4595929,186.597634 Z" id="Rectangle-Copy-18" fill="#E7EAEA" opacity="0.40625" filter="url(#filter-1)"></path>
                    <polygon id="Rectangle-2-Copy-17" fill="#B0B8BF" points="101.095869 59.125 103 58.2425105 1.65409805 0 0 0.899751151"></polygon>
                    <polygon id="Rectangle-2-Copy-8" fill="#EBEDEF" points="0 0.6875 43.0463587 25.5821013 100.926174 59.0551983 100.926174 169.813915 0 111.080541"></polygon>
                    <g id="icons8-webhook" transform="translate(25.000000, 51.000000)" fill="#1793EF" fill-rule="nonzero">
                        <path d="M25.4609693,1.76094429 C19.1009799,-1.89994236 13.9219387,0.333025002 13.9219387,6.73605027 C13.9219387,10.5569913 15.8060466,14.995039 18.6457294,18.7488101 L12.9122735,24.9600736 C11.7403407,23.9360743 10.4376926,23.277013 9.30632644,23.2837852 C7.11120586,23.2954065 6.34494269,25.7223105 7.61153131,28.6613483 C8.87811993,31.6003862 11.7268181,34.0115795 13.9219387,33.9999582 C16.1170593,33.9883369 16.8833224,31.5614329 15.6167338,28.622395 C15.4184067,28.1633525 15.1614833,27.7250365 14.8955444,27.2996828 L21.1698923,20.52848 L21.7829033,19.8648393 L20.7732381,18.7028083 C18.0552552,15.5228 16.2297448,11.4815154 16.2297448,8.06445132 C16.2297448,2.91843466 20.3495399,1.14216611 25.4609693,4.08436654 C30.5723999,7.02656763 34.6921939,13.5456431 34.6921939,18.6916597 C34.6921939,19.6491641 34.5614786,20.4724332 34.2955397,21.1861012 L36.4951674,23.1419995 C36.8287181,22.2494287 37,21.2090001 37,20.0200608 C37,13.6170355 31.8209588,5.42183094 25.4609693,1.76094429 Z M25.64,8.69760232 C23.088906,7.24478819 21,8.13584542 21,10.6768707 C21,13.217896 23.088906,16.4881615 25.64,17.9409757 C26.025156,18.1603169 26.405781,18.3229174 26.76375,18.4365086 L32.34625,31.6895008 L32.89,33.0101532 L33.94125,33.0672222 C35.268906,33.0921399 36.773281,33.5246045 38.4,34.4509993 C43.5384381,37.3772715 47.68,43.8610529 47.68,48.9792093 C47.68,54.0973668 43.5384381,55.8640182 38.4,52.937746 C35.894219,51.5107371 33.619531,49.2178789 31.9475,46.6634344 L30.3525,47.4160217 C32.436875,50.6024669 35.2825,53.4732146 38.4,55.2485894 C44.793594,58.8896562 50,56.668778 50,50.3004184 C50,43.9320588 44.793594,35.7812228 38.4,32.140156 C36.791406,31.2240831 35.300625,30.7948459 33.905,30.5913072 L28.79375,18.437145 C29.6909381,18.1040819 30.28,17.275097 30.28,15.9617073 C30.28,13.420682 28.191094,10.1504164 25.64,8.69760232 Z M25.5,11.3356352 C26.896485,12.0268734 28,13.5284607 28,14.7374606 C28,15.9464617 26.896485,16.3556026 25.5,15.6643643 C24.1035162,14.9731267 23,13.4715399 23,12.2625388 C23,11.0535388 24.1035162,10.6443975 25.5,11.3356352 Z M8.78885135,15.4959239 C3.72709008,13.8660321 0,16.3306295 0,21.7576528 C0,28.1549214 5.21611035,36.3427581 11.6216216,40.0003534 C17.6140203,43.4220583 22.4124786,41.5420165 23.0253378,36.0659613 L33.8842905,42.2665054 C34.4018165,44.5569125 36.1995361,47.0705281 38.3513514,48.2992309 C40.9072005,49.7586401 43,48.8635379 43,46.3109777 C43,43.7584175 40.9072005,40.4733066 38.3513514,39.0138974 C36.1995361,37.7851946 34.4018165,38.2457874 33.8842905,39.945172 L20.9189189,32.5418469 L20.9189189,33.7025135 C20.9189189,38.8439048 16.7696374,40.6185759 11.6216216,37.67902 C6.473607,34.7394648 2.32432432,28.2262508 2.32432432,23.0848595 C2.32432432,18.7232923 5.32960362,16.8122461 9.36993243,18.1127882 L8.78885135,15.4959239 Z M11.1868676,26.1611554 C12.1556217,26.5372135 13.1292669,27.4273215 13.6527856,28.4811437 C14.3524412,29.8870533 13.965918,30.9948326 12.7525298,30.9999817 C11.5391416,31.0051308 10.0468701,29.9248526 9.34721443,28.5189431 C8.6475588,27.1130335 9.03408198,26.0052542 10.2474702,26.0001051 C10.5508179,25.9977524 10.8639503,26.034382 11.1868676,26.1611554 Z M38.5,41.3356352 C39.896485,42.0268734 41,43.5284607 41,44.7374606 C41,45.9464617 39.896485,46.3556026 38.5,45.6643643 C37.1035163,44.9731267 36,43.4715399 36,42.2625388 C36,41.0535388 37.1035163,40.6443975 38.5,41.3356352 Z" id="Shape"></path>
                    </g>
                    <path d="M25.3906466,96.3305353 L72.079152,123.385359 C72.3579126,123.546894 72.5838926,123.897885 72.5838926,124.16932 L72.5838926,124.845473 C72.5838926,125.116908 72.3579126,125.205999 72.079152,125.044465 L25.3906466,97.989641 C25.1118861,97.8281063 24.885906,97.4771149 24.885906,97.20568 L24.885906,96.5295272 C24.885906,96.2580922 25.1118861,96.1690005 25.3906466,96.3305353 Z" id="Rectangle-2-Copy-20" fill="#354D69"></path>
                    <path d="M25.3906466,100.455535 L72.079152,127.510359 C72.3579126,127.671894 72.5838926,128.022885 72.5838926,128.29432 L72.5838926,128.970473 C72.5838926,129.241908 72.3579126,129.330999 72.079152,129.169465 L25.3906466,102.114641 C25.1118861,101.953106 24.885906,101.602115 24.885906,101.33068 L24.885906,100.654527 C24.885906,100.383092 25.1118861,100.294001 25.3906466,100.455535 Z" id="Rectangle-2-Copy-21" fill="#354D69"></path>
                    <path d="M25.3906466,104.580535 L72.079152,131.635359 C72.3579126,131.796894 72.5838926,132.147885 72.5838926,132.41932 L72.5838926,133.095473 C72.5838926,133.366908 72.3579126,133.455999 72.079152,133.294465 L25.3906466,106.239641 C25.1118861,106.078106 24.885906,105.727115 24.885906,105.45568 L24.885906,104.779527 C24.885906,104.508092 25.1118861,104.419001 25.3906466,104.580535 Z" id="Rectangle-2-Copy-22" fill="#354D69"></path>
                    <path d="M25.3906466,108.705535 L72.079152,135.760359 C72.3579126,135.921894 72.5838926,136.272885 72.5838926,136.54432 L72.5838926,137.220473 C72.5838926,137.491908 72.3579126,137.580999 72.079152,137.419465 L25.3906466,110.364641 C25.1118861,110.203106 24.885906,109.852115 24.885906,109.58068 L24.885906,108.904527 C24.885906,108.633092 25.1118861,108.544001 25.3906466,108.705535 Z" id="Rectangle-2-Copy-23" fill="#354D69"></path>
                    <path d="M3.63193779,7.5895914 L19.8714179,16.6906085 C19.9683781,16.7449474 20.0469799,16.863018 20.0469799,16.9543264 L20.0469799,17.7809694 C20.0469799,17.8722778 19.9683781,17.9022476 19.8714179,17.8479086 L3.63193779,8.74689154 C3.5349776,8.69255259 3.45637584,8.57448203 3.45637584,8.48317357 L3.45637584,7.65653062 C3.45637584,7.56522216 3.5349776,7.53525245 3.63193779,7.5895914 Z" id="Rectangle-2-Copy-24" fill="#354D69"></path>
                    <path d="M83.1285821,153.339591 L99.3680622,162.440608 C99.4650224,162.494947 99.5436242,162.613018 99.5436242,162.704326 L99.5436242,163.530969 C99.5436242,163.622278 99.4650224,163.652248 99.3680622,163.597909 L83.1285821,154.496892 C83.0316219,154.442553 82.9530201,154.324482 82.9530201,154.233174 L82.9530201,153.406531 C82.9530201,153.315222 83.0316219,153.285252 83.1285821,153.339591 Z" id="Rectangle-2-Copy-56" fill="#354D69"></path>
                    <polygon id="Rectangle-2-Copy-25" fill="#B0B8BF" points="103 58.4375 100.926174 59.2914169 100.926174 169.8125 103 168.432935"></polygon>
                </g>
            </g>
        </g>
    </g>
</svg>